<?xml version="1.0" encoding="UTF-8"?>
<svg width="188px" height="384px" viewBox="0 0 188 384" version="1.1" xmlns="http://www.w3.org/2000/svg" xmlns:xlink="http://www.w3.org/1999/xlink" xmlns:sketch="http://www.bohemiancoding.com/sketch/ns">
    <!-- Generator: Sketch 3.4.4 (17249) - http://www.bohemiancoding.com/sketch -->
    <title>helix</title>
    <desc>Created with Sketch.</desc>
    <defs></defs>
    <g id="Page-1" stroke="none" stroke-width="1" fill="none" fill-rule="evenodd" sketch:type="MSPage">
        <g id="helix" sketch:type="MSLayerGroup" transform="translate(0.000000, 1.000000)" stroke-width="1.25" stroke="#000000" fill="#000000" opacity="0.8">
            <g id="Layer-1" sketch:type="MSShapeGroup">
                <g id="svg_6">
                    <path d="M11.224854,178.646912 C4.554932,183.087906 0.909485,187.495163 0.904511,191.935166 C0.894593,199.303849 10.945496,206.712922 28.187134,214.081574 C45.430298,221.450135 69.667176,228.797608 94.061951,236.165223 C118.455139,243.533875 142.680451,250.881318 159.935273,258.250001 C166.77591,261.170777 172.502534,264.062684 176.897431,266.983613 C183.574158,262.543672 187.29004,258.136201 187.285279,253.695191 C187.275544,246.327576 177.191773,238.917512 159.935273,231.548859 C142.680451,224.181244 118.45514,216.833802 94.061951,209.465149 C69.667176,202.096634 45.430298,194.749191 28.187134,187.381561 C21.352814,184.460586 15.623047,181.567703 11.224854,178.646911 L11.224854,178.646912 Z" id="use2764"></path>
                    <path d="M11.224854,0.18642 C4.554932,4.626415 0.909485,9.033702 0.904511,13.473808 C0.894593,20.842468 10.945496,28.252479 28.187134,35.620109 C45.430298,42.988777 69.667176,50.336097 94.061951,57.704727 C118.455139,65.072494 142.678742,72.4198 159.935273,79.788444 C166.77591,82.709411 172.502534,85.60128 176.897431,88.522125 C183.574158,84.082115 187.29004,79.674865 187.285279,75.234695 C187.275544,67.866172 177.191773,60.456047 159.935273,53.087509 C142.678742,45.719765 118.45514,38.372436 94.061951,31.003769 C69.667176,23.635117 45.430298,16.287682 28.187134,8.920059 C21.352814,5.999248 15.623047,3.107235 11.224854,0.18642 L11.224854,0.18642 Z" id="path2766"></path>
                    <path d="M11.224854,115.024765 C4.554932,119.464706 0.909485,123.872025 0.904511,128.312103 C0.894593,135.680755 10.945496,143.09082 28.187134,150.458557 C45.430298,157.82724 69.667176,165.17453 94.061951,172.543198 C118.455139,179.910797 142.678742,187.259201 159.935273,194.626786 C166.77591,197.547761 172.502534,200.439744 176.897431,203.36052 C183.574158,198.920411 187.29004,194.513184 187.285279,190.073151 C187.275544,182.704514 177.191773,175.294495 159.935273,167.926773 C142.678742,160.558197 118.45514,153.210724 94.061951,145.842087 C69.667176,138.474457 45.430298,131.127136 28.187134,123.758362 C21.352814,120.837601 15.623047,117.945526 11.224854,115.024765 L11.224854,115.024765 Z" id="use2776"></path>
                    <path d="M176.89743,203.360519 C172.389068,206.422866 166.787536,209.229141 159.935272,212.156753 C142.693512,219.525421 118.455139,226.872833 94.06195,234.241363 C69.667175,241.60913 45.443572,249.019134 28.187133,256.387786 C10.930785,263.755401 0.914306,271.102874 0.90451,278.471404 C0.901184,280.696868 0.96527,300.717986 0.96527,305.190856 C0.96527,300.766082 7.752105,294.34732 11.290557,291.821471 C14.775207,289.335143 21.359618,286.003997 28.187133,283.087828 C45.443572,275.720122 69.667175,268.310118 94.06195,260.941435 C118.455138,253.572905 142.693511,246.225432 159.935272,238.857847 C177.17865,231.489164 187.295196,224.141722 187.285278,216.773206 C187.281952,214.490934 187.295196,196.747098 187.25235,190.156949 C187.30481,196.768277 181.42926,200.282636 176.897431,203.360517 L176.89743,203.360519 Z" id="use2788"></path>
                    <path d="M11.224854,293.362915 C4.554932,297.802917 0.909485,302.210175 0.904511,306.65033 C0.894593,314.01883 10.945496,321.428955 28.187134,328.796631 C45.430298,336.165222 69.667176,343.512604 94.061951,350.881226 C118.455139,358.248841 142.680451,365.596283 159.935273,372.964936 C166.77591,375.885743 172.502534,378.777772 176.897431,381.698579 C183.574158,377.25821 187.29004,372.851136 187.285279,368.410218 C187.275544,361.042664 177.191773,353.632478 159.935273,346.263886 C142.680451,338.89621 118.45514,331.54889 94.061951,324.180268 C69.667176,316.811585 45.430298,309.464112 28.187134,302.096619 C21.352814,299.175629 15.623047,296.283753 11.224854,293.362915 L11.224854,293.362915 Z" id="use2790"></path>
                    <path d="M177.545074,88.522125 C173.036682,91.584671 167.43515,94.390945 160.582946,97.318405 C143.341064,104.686035 119.102782,112.03453 94.707977,119.402145 C70.31485,126.770828 46.091156,134.180847 28.834533,141.548446 C11.578246,148.917114 1.560272,156.264587 1.550689,163.633224 C1.548644,165.857452 1.612853,185.878738 1.612853,190.352417 C1.612853,185.926773 8.399444,179.509048 11.938201,176.983185 C15.422607,174.496857 22.005492,171.164581 28.834533,168.24942 C46.091155,160.880768 70.314849,153.470886 94.707977,146.103271 C119.102783,138.734619 143.341064,131.387161 160.582946,124.018508 C177.826354,116.650878 187.941009,109.303405 187.93106,101.934737 C187.929443,99.652633 187.942931,81.908904 187.900024,75.318488 C187.952636,81.930129 182.07669,85.444205 177.545074,88.522124 L177.545074,88.522124 L177.545074,88.522125 Z" id="path2866"></path>
                    <path d="M176.89743,266.983612 C172.389068,270.046051 166.787536,272.852356 159.935272,275.779816 C142.693512,283.147553 118.455139,290.495941 94.06195,297.863495 C69.667175,305.232208 45.443572,312.642212 28.187133,320.009888 C10.930785,327.378601 0.912872,334.725861 0.90451,342.094574 C0.901184,344.318848 0.96527,364.340088 0.96527,368.81369 C0.96527,364.388275 7.752105,357.970367 11.290557,355.444519 C14.775207,352.958191 21.357787,349.626892 28.187133,346.710907 C45.443572,339.342255 69.667175,331.93219 94.06195,324.564606 C118.455138,317.195954 142.693511,309.848603 159.935272,302.47995 C177.17865,295.112244 187.293396,287.764771 187.285278,280.396118 C187.281952,278.114197 187.295196,260.369354 187.25235,253.779999 C187.30481,260.39148 181.42926,263.905701 176.897431,266.983612 L176.89743,266.983612 Z" id="use2876"></path>
                    <path d="M176.89743,24.900101 C172.389068,27.96254 166.787536,30.767739 159.935272,33.695381 C142.693512,41.064049 118.455139,48.411377 94.06195,55.779991 C69.667175,63.147606 45.443572,70.557777 28.187133,77.926292 C10.930785,85.294982 0.912872,92.64241 0.90451,100.01004 C0.901184,102.235412 0.96527,122.256546 0.96527,126.729309 C0.96527,122.304733 7.752105,115.886902 11.290557,113.360153 C14.775207,110.873657 21.359618,107.542419 28.187133,104.626358 C45.443572,97.258713 69.667175,89.848717 94.06195,82.480064 C118.455138,75.112449 142.693511,67.764091 159.935272,60.396339 C177.17865,53.027816 187.293396,45.680366 187.285278,38.312728 C187.281952,36.030494 187.295196,18.285716 187.25235,11.695556 C187.30481,18.30783 181.42926,21.82125 176.897431,24.9001 L176.89743,24.900101 Z" id="path2920"></path>
                </g>
            </g>
        </g>
    </g>
</svg>